# xmcd
#
# Track frame offsets:
#	150
#	49449
#	89486
#	144182
#	192830
#	236485
#
# Disc length: 3755 seconds
# Revision: 2
# Processed by: cddbd v1.5.2PL0 Copyright (c) Steve Scherf et al.
# Submitted via: dBpowerAMP V12.0
#
DISCID=4d0ea906
DTITLE=Lester Levenson - In Retreat CD 01
DYEAR=1981
DGENRE=Home Study
TTITLE0=In Retreat Session 1 pt 1
TTITLE1=In Retreat Session 1 pt 2
TTITLE2=In Retreat Session 1 pt 3
TTITLE3=In Retreat Session 1 pt 4
TTITLE4=In Retreat Session 1 pt 5
TTITLE5=In Retreat Session 1 pt 6
EXTD=
EXTT0=
EXTT1=
EXTT2=
EXTT3=
EXTT4=
EXTT5=
PLAYORDER=
